<?xml version="1.0" encoding="UTF-8" standalone="no"?>
<svg
   version="1.1"
   id="svg2"
   height="512"
   width="512"
   sodipodi:docname="icon.svg"
   inkscape:version="1.1.2 (0a00cf5339, 2022-02-04, custom)"
   xmlns:inkscape="http://www.inkscape.org/namespaces/inkscape"
   xmlns:sodipodi="http://sodipodi.sourceforge.net/DTD/sodipodi-0.dtd"
   xmlns="http://www.w3.org/2000/svg"
   xmlns:svg="http://www.w3.org/2000/svg"
   xmlns:rdf="http://www.w3.org/1999/02/22-rdf-syntax-ns#"
   xmlns:cc="http://creativecommons.org/ns#"
   xmlns:dc="http://purl.org/dc/elements/1.1/">
  <sodipodi:namedview
     pagecolor="#ffffff"
     bordercolor="#666666"
     borderopacity="1"
     objecttolerance="10"
     gridtolerance="10"
     guidetolerance="10"
     inkscape:pageopacity="0"
     inkscape:pageshadow="2"
     inkscape:window-width="2560"
     inkscape:window-height="1440"
     id="namedview976"
     showgrid="false"
     fit-margin-top="0"
     fit-margin-left="0"
     fit-margin-right="0"
     fit-margin-bottom="0"
     inkscape:zoom="1.1155341"
     inkscape:cx="142.98084"
     inkscape:cy="288.65097"
     inkscape:window-x="2560"
     inkscape:window-y="0"
     inkscape:window-maximized="0"
     inkscape:current-layer="svg2"
     inkscape:pagecheckerboard="0" />
  <defs
     id="defs4" />
  <metadata
     id="metadata7">
    <rdf:RDF>
      <cc:Work
         rdf:about="">
        <dc:format>image/svg+xml</dc:format>
        <dc:type
           rdf:resource="http://purl.org/dc/dcmitype/StillImage" />
      </cc:Work>
    </rdf:RDF>
  </metadata>
  <g
     transform="matrix(13.186076,0,0,13.186076,-1298.8398,-3025.7493)"
     id="layer1-8"
     inkscape:label="Ebene 1">
    <g
       transform="matrix(0.26458333,0,0,0.26458333,103.35446,235.43894)"
       id="group">
      <path
         d="M 101.732,12.7 H 93.133 V 0 h -76.2 V 12.7 H 8.599 C 3.942,12.7 0,16.351 0,20.981 v 41.91 c 0,4.63 3.942,8.546 8.599,8.546 h 8.334 V 38.099 h 76.2 v 33.338 h 8.599 c 4.657,0 8.334,-3.916 8.334,-8.546 v -41.91 c 0,-4.63 -3.678,-8.281 -8.334,-8.281 z"
         id="path"
         inkscape:connector-curvature="0"
         style="fill:#ffffff;stroke-width:0.26458332" />
      <path
         d="m 21.167,42.334 v 59.267 H 88.9 V 42.334 Z m 32.401,9.642 c 8.739,0 14.653,4.658 14.653,14.548 0,8.896 -5.182,14.548 -12.456,14.548 -1.779,0 -3.245,-0.21 -3.978,-0.42 v 11.305 l -9.941,0.001 V 54.121 c 2.669,-1.256 6.28,-2.146 11.723,-2.146 z m -0.051,5.807 c -0.733,0 -1.259,0.106 -1.73,0.263 v 16.956 c 0.366,0.157 0.892,0.26 1.572,0.26 3.559,0 5.023,-2.928 5.023,-8.685 0,-5.913 -1.254,-8.794 -4.865,-8.794 z"
         id="path_1"
         inkscape:connector-curvature="0"
         style="fill:#ffffff;stroke-width:0.99999994" />
    </g>
  </g>
</svg>
